<svg id="Logo_JDC" xmlns="http://www.w3.org/2000/svg" width="140.995" height="50" viewBox="0 0 140.995 50">
  <path id="Tracé_168" data-name="Tracé 168" d="M438.91,135H367.953l4.711-24.928H443.62Z" transform="translate(-332 -85)" fill="#04b2d9"/>
  <g id="Groupe_28" data-name="Groupe 28">
    <path id="Tracé_169" data-name="Tracé 169" d="M334.7,99.656a6.221,6.221,0,0,0,3.185,1.072c2.307,0,3.412-1.072,3.769-3.574l1.69-11.732h4.712L346.267,98.1c-.52,3.705-3.153,7.247-8.71,7.247-3.607,0-5.362-1.43-5.557-1.625Z" transform="translate(-332 -85)" fill="#fff"/>
    <path id="Tracé_170" data-name="Tracé 170" d="M349.514,96.471c0-6.142,4.842-11.471,11.959-11.471,5.882,0,9.132,3.932,9.132,8.871,0,6.143-4.81,11.472-11.992,11.472C352.763,105.343,349.514,101.411,349.514,96.471ZM365.7,94.424a4.641,4.641,0,0,0-4.875-4.875,6.3,6.3,0,0,0-6.4,6.37,4.624,4.624,0,0,0,4.81,4.874A6.318,6.318,0,0,0,365.7,94.424Z" transform="translate(-332 -85)" fill="#fff"/>
    <path id="Tracé_171" data-name="Tracé 171" d="M373.138,96.5l1.56-11.082h4.712L377.85,96.5c-.324,2.242.781,4.289,3.64,4.289a4.705,4.705,0,0,0,4.842-4.289l1.56-11.082H392.6L391.045,96.5a9.959,9.959,0,0,1-10.173,8.839C375.381,105.343,372.423,101.541,373.138,96.5Z" transform="translate(-332 -85)" fill="#fff"/>
    <path id="Tracé_172" data-name="Tracé 172" d="M412.978,91.3a7.267,7.267,0,0,1-4.192,6.792v.358L412.3,104.6l-.032.326H406.9l-3.022-5.687h-4.55l-.779,5.687h-4.713l2.73-19.5h9.2C410.281,85.422,412.978,87.632,412.978,91.3Zm-7.962-1.82H400.7l-.814,5.85H404.2c2.469,0,3.835-1.17,3.835-3.347C408.039,90.362,406.967,89.484,405.016,89.484Z" transform="translate(-332 -85)" fill="#fff"/>
    <path id="Tracé_173" data-name="Tracé 173" d="M433.288,104.921h-1.073L421.1,94.164l-1.5,10.757h-4.68l2.73-19.5h1.073l11.146,10.334,1.462-10.3h4.68Z" transform="translate(-332 -85)" fill="#fff"/>
    <path id="Tracé_174" data-name="Tracé 174" d="M447.875,85.422h.781l7.506,19.5h-5.33l-.746-2.308H441.6l-1.364,2.308h-5.3Zm-.682,8.125h-.162l-3.217,5.394-.294.358h5.526l-.163-.358Z" transform="translate(-332 -85)" fill="#fff"/>
    <path id="Tracé_175" data-name="Tracé 175" d="M457.786,104.921l2.73-19.5h4.712l-2.177,15.437h9.944l-.585,4.062Z" transform="translate(-332 -85)" fill="#fff"/>
    <path id="Tracé_176" data-name="Tracé 176" d="M339.071,129.849h-6l2.025-14.461h6c4.362,0,6.748,2.652,6.748,6.266C347.844,126.233,344.4,129.849,339.071,129.849Zm-.915-11.448-1.181,8.435h2.265a4.6,4.6,0,0,0,4.966-4.868c0-2.362-1.543-3.567-3.784-3.567Z" transform="translate(-332 -85)" fill="#fff"/>
    <path id="Tracé_177" data-name="Tracé 177" d="M351.915,123.607l1.157-8.219h3.494l-1.156,8.219a2.553,2.553,0,0,0,2.7,3.181,3.489,3.489,0,0,0,3.591-3.181l1.157-8.219h3.5l-1.156,8.219a7.385,7.385,0,0,1-7.544,6.555C353.578,130.162,351.385,127.343,351.915,123.607Z" transform="translate(-332 -85)" fill="#fff"/>
    <path id="Tracé_178" data-name="Tracé 178" d="M387.627,128.4a8.154,8.154,0,0,1-5.4,1.759c-4.387,0-6.8-2.916-6.8-6.579a8.545,8.545,0,0,1,8.917-8.508c3.567,0,4.892,1.76,4.892,1.76l-2.362,2.675a5.339,5.339,0,0,0-2.964-1.085,4.681,4.681,0,0,0-4.844,4.772,3.428,3.428,0,0,0,3.663,3.615,5.13,5.13,0,0,0,3.253-1.085Z" transform="translate(-332 -85)" fill="#fff"/>
    <path id="Tracé_179" data-name="Tracé 179" d="M391.145,123.583a8.546,8.546,0,0,1,8.868-8.508c4.362,0,6.772,2.917,6.772,6.579a8.538,8.538,0,0,1-8.893,8.508C393.554,130.162,391.145,127.246,391.145,123.583Zm12-1.518a3.442,3.442,0,0,0-3.616-3.616,4.675,4.675,0,0,0-4.748,4.724,3.429,3.429,0,0,0,3.568,3.615A4.687,4.687,0,0,0,403.147,122.065Z" transform="translate(-332 -85)" fill="#fff"/>
    <path id="Tracé_180" data-name="Tracé 180" d="M413.652,129.849h-3.5l2.025-14.461h3.495Z" transform="translate(-332 -85)" fill="#fff"/>
    <path id="Tracé_181" data-name="Tracé 181" d="M432.617,129.849h-.8l-8.243-7.978-1.108,7.978H419l2.025-14.461h.8l8.265,7.665,1.084-7.64h3.471Z" transform="translate(-332 -85)" fill="#fff"/>
  </g>
</svg>
